<svg width="276" height="230" viewBox="0 0 276 230" fill="none" xmlns="http://www.w3.org/2000/svg">
<path d="M172.585 54.4692H171.326V19.9683C171.326 17.346 170.809 14.7494 169.806 12.3267C168.802 9.90405 167.331 7.70277 165.477 5.84854C163.623 3.99432 161.422 2.52347 158.999 1.51997C156.576 0.516477 153.98 -9.72189e-06 151.357 1.37249e-10H78.2625C75.6402 -9.29919e-06 73.0436 0.516476 70.621 1.51997C68.1983 2.52347 65.997 3.99432 64.1428 5.84854C62.2885 7.70277 60.8177 9.90405 59.8142 12.3267C58.8107 14.7494 58.2942 17.346 58.2942 19.9683V209.243C58.2942 211.866 58.8107 214.462 59.8142 216.885C60.8177 219.308 62.2885 221.509 64.1428 223.363C65.997 225.217 68.1983 226.688 70.621 227.692C73.0436 228.695 75.6402 229.212 78.2625 229.212H151.357C153.98 229.212 156.576 228.695 158.999 227.692C161.422 226.688 163.623 225.217 165.477 223.363C167.331 221.509 168.802 219.308 169.806 216.885C170.809 214.462 171.326 211.866 171.326 209.243V79.0276H172.585L172.585 54.4692Z" fill="#414833"/>
<path d="M276 229H0V229.644H276V229Z" fill="#737A5D"/>
<path d="M151.839 5.51953H142.298C142.737 6.59528 142.904 7.76243 142.785 8.91815C142.667 10.0739 142.266 11.1827 141.618 12.147C140.97 13.1113 140.095 13.9014 139.069 14.4477C138.044 14.994 136.9 15.2798 135.738 15.2799H93.8631C92.7013 15.2798 91.5574 14.994 90.5321 14.4477C89.5067 13.9014 88.6315 13.1113 87.9835 12.147C87.3354 11.1827 86.9345 10.0739 86.8159 8.91815C86.6974 7.76243 86.8649 6.59528 87.3037 5.51953H78.392C76.4338 5.51953 74.4947 5.90524 72.6855 6.65464C70.8762 7.40403 69.2323 8.50245 67.8476 9.88716C66.4629 11.2719 65.3645 12.9158 64.6151 14.725C63.8657 16.5342 63.48 18.4733 63.48 20.4316V209.429C63.48 211.387 63.8657 213.326 64.6151 215.136C65.3645 216.945 66.4629 218.589 67.8476 219.973C69.2323 221.358 70.8762 222.457 72.6854 223.206C74.4947 223.955 76.4338 224.341 78.392 224.341H151.839C153.797 224.341 155.736 223.955 157.546 223.206C159.355 222.457 160.999 221.358 162.383 219.973C163.768 218.589 164.867 216.945 165.616 215.136C166.365 213.326 166.751 211.387 166.751 209.429V20.4316C166.751 18.4733 166.365 16.5342 165.616 14.725C164.867 12.9158 163.768 11.2719 162.383 9.88716C160.999 8.50245 159.355 7.40403 157.546 6.65464C155.736 5.90524 153.797 5.51953 151.839 5.51953V5.51953Z" fill="white"/>
<path d="M28.5543 229.61L28.2088 229.48C28.1329 229.452 20.5776 226.557 17.0383 219.994C13.4989 213.43 15.232 205.527 15.2499 205.448L15.3315 205.088L15.6768 205.217C15.7527 205.246 23.3079 208.141 26.8473 214.704C30.3867 221.268 28.6536 229.171 28.6357 229.25L28.5543 229.61ZM17.6051 219.688C20.5974 225.238 26.5678 228.082 28.0805 228.732C28.3682 227.11 29.2701 220.554 26.2805 215.01C23.2912 209.466 17.3184 206.617 15.805 205.966C15.5173 207.588 14.6156 214.144 17.6051 219.688Z" fill="#737A5D"/>
<path d="M19.7432 217.692C26.1037 221.519 28.5534 229.12 28.5534 229.12C28.5534 229.12 20.6906 230.517 14.3301 226.69C7.96964 222.863 5.52002 215.262 5.52002 215.262C5.52002 215.262 13.3828 213.866 19.7432 217.692Z" fill="#414833"/>
<path d="M198.458 70.0038C194.722 63.6911 187.33 63.3969 187.33 63.3969C187.33 63.3969 180.128 62.4758 175.508 72.0901C171.201 81.0515 165.257 89.7038 174.551 91.8016L176.229 86.577L177.269 92.1906C178.592 92.2857 179.919 92.3084 181.245 92.2585C191.197 91.9372 200.675 92.3525 200.37 88.7812C199.965 84.0337 202.053 76.0778 198.458 70.0038Z" fill="#FFC374"/>
<path d="M185.004 81.8914C185.004 81.8914 189.832 88.6509 186.935 94.1228C184.038 99.5947 193.694 105.388 193.694 105.388L200.776 89.9384C200.776 89.9384 192.407 84.4664 194.66 79.3164L185.004 81.8914Z" fill="#FFD6D6"/>
<path d="M188.222 84.7884C192.844 84.7884 196.591 81.0416 196.591 76.4196C196.591 71.7976 192.844 68.0508 188.222 68.0508C183.6 68.0508 179.854 71.7976 179.854 76.4196C179.854 81.0416 183.6 84.7884 188.222 84.7884Z" fill="#FFD6D6"/>
<path d="M159.26 86.0941L166.254 77.0707C166.254 77.0707 168.716 67.6124 172.283 68.0919C175.85 68.5713 170.874 79.4348 170.874 79.4348L163.925 89.4228L159.26 86.0941Z" fill="#FFD6D6"/>
<path d="M194.66 206.136L196.913 218.045L201.741 219.333L200.454 205.17L194.66 206.136Z" fill="#FFD6D6"/>
<path d="M243.263 193.261L251.954 205.17L255.495 206.779L258.392 201.951L249.701 190.686L243.263 193.261Z" fill="#FFD6D6"/>
<path d="M192.729 100.238L187.359 93.1702C187.359 93.1702 176.957 95.0883 175.991 96.054C175.025 97.0196 178.566 114.723 178.566 114.723C178.566 114.723 179.21 119.551 182.107 122.126L185.004 124.057L208.823 119.229L209.718 108.631C210.044 104.771 209.561 100.885 208.298 97.2227C207.035 93.5603 205.021 90.2021 202.385 87.3633L198.241 87.9298L192.729 100.238Z" fill="#4AD2C9"/>
<path d="M177.279 96.6978L175.669 96.054L168.266 95.4103C168.266 95.4103 165.691 94.7665 166.335 93.479C166.978 92.1915 167.622 91.8696 166.335 91.5477C165.047 91.2258 164.725 90.904 165.047 89.9383C165.369 88.9727 167.3 87.0414 167.3 87.0414L161.828 82.5352C161.828 82.5352 161.532 82.7446 161.054 83.1322C158.337 85.3318 149.74 93.2679 156.035 101.204C163.438 110.538 172.129 116.01 179.21 114.079L177.279 96.6978Z" fill="#4AD2C9"/>
<path d="M184.36 122.447V126.954C184.36 126.954 181.463 132.425 182.429 137.576C183.394 142.726 183.716 145.301 183.716 145.301C183.821 149.681 184.581 154.02 185.969 158.176C188.222 164.613 180.819 206.779 190.154 207.423C199.488 208.067 204.638 208.71 207.535 205.492C210.432 202.273 202.707 146.91 202.707 146.91C202.707 146.91 229.101 201.951 234.573 199.698C240.045 197.445 253.885 192.295 252.276 189.398C250.667 186.501 210.11 122.125 210.11 122.125L208.822 119.229L184.36 122.447Z" fill="#3D5058"/>
<path d="M199.81 215.792C199.81 215.792 194.66 215.47 194.66 217.079C194.66 218.689 192.085 224.161 192.085 224.161C192.085 224.161 190.154 230.598 195.304 229.955C200.454 229.311 203.673 223.517 203.673 223.517L202.385 217.401L199.81 215.792Z" fill="black"/>
<path d="M253.563 204.526C253.563 204.526 249.057 201.629 249.379 203.56C249.701 205.491 250.023 210.641 252.276 210.963C254.529 211.285 261.288 213.216 261.61 213.86C261.932 214.504 269.657 217.079 269.657 212.894C269.657 208.71 264.829 205.491 264.829 205.491L259.357 201.307C259.357 201.307 255.817 200.985 255.173 203.238C254.529 205.491 253.563 204.526 253.563 204.526Z" fill="black"/>
<path d="M188.235 68.7727C191.187 68.7727 193.579 66.38 193.579 63.4284C193.579 60.4767 191.187 58.084 188.235 58.084C185.283 58.084 182.891 60.4767 182.891 63.4284C182.891 66.38 185.283 68.7727 188.235 68.7727Z" fill="#FFC374"/>
<path d="M182.328 62.0221C182.328 60.7022 182.817 59.429 183.7 58.4478C184.583 57.4666 185.797 56.8468 187.11 56.7078C186.365 56.6284 185.611 56.7067 184.898 56.9376C184.185 57.1685 183.528 57.5468 182.971 58.048C182.413 58.5492 181.968 59.162 181.662 59.8467C181.357 60.5314 181.2 61.2725 181.2 62.0221C181.2 62.7717 181.357 63.5129 181.662 64.1975C181.968 64.8822 182.413 65.495 182.971 65.9962C183.528 66.4974 184.185 66.8757 184.898 67.1066C185.611 67.3375 186.365 67.4158 187.11 67.3364C185.797 67.1975 184.583 66.5777 183.7 65.5965C182.817 64.6153 182.328 63.3421 182.328 62.0221V62.0221Z" fill="#FFC374"/>
<path d="M196.806 69.3936L189.504 65.5684L179.419 67.1333L177.333 76.348L182.527 76.1485L183.978 72.763V76.0925L186.374 76.0004L187.765 70.6106L188.634 76.348L197.154 76.1742L196.806 69.3936Z" fill="#FFC374"/>
<path d="M196.369 123.194L185.107 123.498C185.107 123.498 175.498 125.368 176.037 121.49C176.576 117.611 185.951 118.968 185.951 118.968L196.212 117.402L196.369 123.194Z" fill="#FFD6D6"/>
<path d="M205.279 86.8181C205.845 86.7324 206.423 86.8516 206.909 87.1542C207.395 87.4568 207.757 87.9229 207.93 88.4687C210.135 95.4161 216.927 118.665 210.179 121.855C202.23 125.612 196.43 125.446 196.43 125.446L193.325 117.802L196.151 115.15L199.169 95.7488L200.615 87.5247L205.279 86.8181Z" fill="#4AD2C9"/>
<path opacity="0.2" d="M203.19 99.7559L201.902 112.631L190.636 117.459L203.19 114.562V99.7559Z" fill="black"/>
<g clip-path="url(#clip0_974_7049)">
<path fill-rule="evenodd" clip-rule="evenodd" d="M114.993 94.0637C115.211 93.9788 115.454 93.9788 115.672 94.0637L132.547 100.626C132.92 100.771 133.159 101.136 133.144 101.535L132.82 110.281C132.436 120.663 125.747 129.756 115.95 133.214L115.645 133.322C115.443 133.393 115.222 133.393 115.021 133.322L114.715 133.214C104.918 129.756 98.2291 120.663 97.8446 110.281L97.5207 101.535C97.5059 101.136 97.7455 100.771 98.1177 100.626L114.993 94.0637ZM99.4191 102.132L99.7183 110.212C100.074 119.822 106.265 128.24 115.333 131.443C124.4 128.24 130.591 119.822 130.947 110.212L131.246 102.132L115.333 95.9434L99.4191 102.132Z" fill="#414833"/>
<path fill-rule="evenodd" clip-rule="evenodd" d="M127.245 106.851L112.245 121.851C111.879 122.217 111.286 122.217 110.92 121.851L104.357 115.289L105.683 113.963L111.582 119.862L125.92 105.525L127.245 106.851Z" fill="#414833"/>
</g>
<defs>
<clipPath id="clip0_974_7049">
<rect width="45" height="45" fill="white" transform="translate(97.52 92)"/>
</clipPath>
</defs>
</svg>
